HIERARCHY
ROOT joint_Root
{
	OFFSET 0.0 0.0 0.0
	CHANNELS 6 Xposition Yposition Zposition Zrotation Xrotation Yrotation 
	JOINT Hips
	{
		OFFSET -0.726466 93.3139 -2.00062
		CHANNELS 6 Xposition Yposition Zposition Zrotation Xrotation Yrotation 
		JOINT Spine
		{
			OFFSET 15.7357 0.0 0.0
			CHANNELS 6 Xposition Yposition Zposition Zrotation Xrotation Yrotation 
			JOINT Chest
			{
				OFFSET 8.98455 -0.406207 0.0
				CHANNELS 6 Xposition Yposition Zposition Zrotation Xrotation Yrotation 
				JOINT Neck
				{
					OFFSET 16.3773 0.0 0.0
					CHANNELS 6 Xposition Yposition Zposition Zrotation Xrotation Yrotation 
					JOINT Head
					{
						OFFSET 6.45672 0.0 0.0
						CHANNELS 6 Xposition Yposition Zposition Zrotation Xrotation Yrotation 
						End Site
						{
							OFFSET 0.0 0.0 0.0
						}
					}
				}
				JOINT Shoulder_L
				{
					OFFSET 12.9942 -0.242716 4.98039
					CHANNELS 6 Xposition Yposition Zposition Zrotation Xrotation Yrotation 
					JOINT UpperArm_L
					{
						OFFSET 5.34809 0.0 0.0
						CHANNELS 6 Xposition Yposition Zposition Zrotation Xrotation Yrotation 
						JOINT LowerArm_L
						{
							OFFSET 24.3286 1.87007e-05 0.0
							CHANNELS 6 Xposition Yposition Zposition Zrotation Xrotation Yrotation 
							JOINT Hand_L
							{
								OFFSET 22.2916 0.0 0.0
								CHANNELS 6 Xposition Yposition Zposition Zrotation Xrotation Yrotation 
								End Site
								{
									OFFSET 0.0 0.0 0.0
								}
							}
						}
					}
				}
				JOINT Shoulder_R
				{
					OFFSET 12.9945 -0.242716 -4.98039
					CHANNELS 6 Xposition Yposition Zposition Zrotation Xrotation Yrotation 
					JOINT UpperArm_R
					{
						OFFSET -5.34813 0.0 0.0
						CHANNELS 6 Xposition Yposition Zposition Zrotation Xrotation Yrotation 
						JOINT LowerArm_R
						{
							OFFSET -24.3289 0.000322201 0.0
							CHANNELS 6 Xposition Yposition Zposition Zrotation Xrotation Yrotation 
							JOINT Hand_R
							{
								OFFSET -22.2915 -0.000108084 0.0
								CHANNELS 6 Xposition Yposition Zposition Zrotation Xrotation Yrotation 
								End Site
								{
									OFFSET 0.0 0.0 0.0
								}
							}
						}
					}
				}
			}
		}
		JOINT UpperLeg_L
		{
			OFFSET -2.19248 -6.46944 0.0
			CHANNELS 6 Xposition Yposition Zposition Zrotation Xrotation Yrotation 
			JOINT LowerLeg_L
			{
				OFFSET 39.0811 0.0 -1.23785e-05
				CHANNELS 6 Xposition Yposition Zposition Zrotation Xrotation Yrotation 
				JOINT Foot_L
				{
					OFFSET 40.9854 0.0 -1.26872e-05
					CHANNELS 6 Xposition Yposition Zposition Zrotation Xrotation Yrotation 
					JOINT Toes_L
					{
						OFFSET 11.7543 0.0 0.0
						CHANNELS 6 Xposition Yposition Zposition Zrotation Xrotation Yrotation 
						End Site
						{
							OFFSET 0.0 0.0 0.0
						}
					}
				}
			}
		}
		JOINT UpperLeg_R
		{
			OFFSET -2.19251 6.46944 0.0
			CHANNELS 6 Xposition Yposition Zposition Zrotation Xrotation Yrotation 
			JOINT LowerLeg_R
			{
				OFFSET -39.0811 -0.00228153 -0.0401928
				CHANNELS 6 Xposition Yposition Zposition Zrotation Xrotation Yrotation 
				JOINT Foot_R
				{
					OFFSET -40.9854 0.0 0.0
					CHANNELS 6 Xposition Yposition Zposition Zrotation Xrotation Yrotation 
					JOINT Toes_R
					{
						OFFSET -11.7543 0.0 0.0
						CHANNELS 6 Xposition Yposition Zposition Zrotation Xrotation Yrotation 
						End Site
						{
							OFFSET 0.0 0.0 0.0
						}
					}
				}
			}
		}
	}
}
MOTION
Frames:	9
Frame Time:	0.0333333
0.000000 0.000000 0.000000 0.000000 0.000000 -0.000000 -0.949166 92.320700 -1.829080 88.307400 -0.148150 5.272840 15.735700 0.000005 -0.000001 84.508800 84.887300 -83.768500 8.984550 -0.406207 -0.000000 2.419690 -1.012240 1.500590 16.377300 -0.000001 -0.000001 4.303650 -2.295910 -0.497152 6.456720 -0.000001 -0.000000 7.089830 -3.258850 -1.325950 12.994200 -0.242716 4.980390 -90.082200 0.254120 -72.086400 5.348090 -0.000007 -0.000001 -68.621300 37.078800 -15.158300 24.328600 0.000019 0.000005 2.008280 4.756030 -22.921600 22.291600 -0.000001 0.000005 2.552270 5.494840 -6.335220 12.994500 -0.242716 -4.980390 88.245300 5.579640 -72.511500 -5.348130 -0.000001 -0.000004 -65.363900 41.358200 -15.923700 -24.328900 0.000322 -0.000009 2.138120 7.580440 -15.809600 -22.291500 -0.000108 -0.000004 9.379780 5.400170 -2.942950 -2.192480 -6.469440 -0.000000 -175.224000 -8.355320 -2.581550 39.081100 -0.000007 -0.000012 -0.103788 0.241795 23.231100 40.985400 -0.000006 -0.000013 -0.064778 4.999190 -65.518800 11.754300 -0.000000 0.000003 -0.000034 -0.000407 -16.593400 -2.192510 6.469440 -0.000001 179.623000 14.613900 -179.871000 -39.081100 -0.002282 -0.040193 -0.068389 0.197103 19.992700 -40.985400 0.000008 0.000006 2.871470 8.247930 -65.263900 -11.754300 -0.000006 -0.000006 -0.009235 -0.097832 -20.558200
0.000000 0.000000 0.000000 0.000000 0.000000 -0.000000 -0.927990 92.320000 -1.843990 88.258600 -0.199133 5.219940 15.735700 0.000005 -0.000001 85.429400 84.925300 -84.619200 8.984550 -0.406207 -0.000000 2.357850 -0.846386 1.636250 16.377300 -0.000001 -0.000001 4.319530 -2.264840 -0.412269 6.456720 -0.000001 -0.000000 7.241870 -3.343960 -1.666010 12.994200 -0.242716 4.980390 -90.321100 0.981050 -71.877400 5.348090 -0.000007 -0.000001 -67.824500 33.133900 -15.610600 24.328600 0.000019 0.000005 1.851880 3.930860 -25.261400 22.291600 -0.000001 0.000005 0.780720 5.511690 -7.012190 12.994500 -0.242716 -4.980390 88.308400 5.368790 -72.482700 -5.348130 -0.000001 -0.000004 -65.892800 40.858000 -15.574700 -24.328900 0.000322 -0.000009 2.174850 7.672540 -15.885300 -22.291500 -0.000108 -0.000004 9.420540 5.398710 -2.895590 -2.192480 -6.469440 -0.000000 -175.195000 -8.356360 -2.657550 39.081100 -0.000007 -0.000012 -0.104128 0.242025 23.279100 40.985400 -0.000006 -0.000013 -0.056904 4.976010 -65.543700 11.754300 -0.000000 0.000003 -0.000032 -0.000384 -16.592600 -2.192510 6.469440 -0.000001 179.661000 14.669300 -179.930000 -39.081100 -0.002282 -0.040193 -0.068683 0.198147 19.970700 -40.985400 0.000008 0.000006 2.864330 8.351290 -65.233600 -11.754300 -0.000006 -0.000006 -0.009021 -0.096167 -20.490200
0.000000 0.000000 0.000000 0.000000 0.000000 -0.000000 -0.930152 92.325700 -1.859210 88.283100 -0.077870 5.203040 15.735700 0.000005 -0.000001 86.606800 84.952700 -85.759800 8.984550 -0.406207 -0.000000 2.316260 -0.637298 1.705360 16.377300 -0.000001 -0.000001 4.409520 -2.215230 -0.478630 6.456720 -0.000001 -0.000000 7.385800 -3.407430 -1.768800 12.994200 -0.242716 4.980390 -90.444800 1.344330 -71.692300 5.348090 -0.000007 -0.000001 -65.854700 29.287200 -17.793600 24.328600 0.000019 0.000005 1.044480 1.879660 -29.091800 22.291600 -0.000001 0.000005 1.995130 5.532750 -7.902790 12.994500 -0.242716 -4.980390 88.393900 5.123570 -72.569700 -5.348130 -0.000001 -0.000004 -66.416800 40.623700 -15.177600 -24.328900 0.000322 -0.000009 2.133020 7.511180 -15.911000 -22.291500 -0.000108 -0.000004 9.323620 5.397410 -2.853300 -2.192480 -6.469440 -0.000000 -175.219000 -8.328210 -2.680930 39.081100 -0.000007 -0.000012 -0.105602 0.245998 23.232800 40.985400 -0.000006 -0.000013 -0.046758 5.050460 -65.498200 11.754300 -0.000000 0.000003 -0.000030 -0.000362 -16.591700 -2.192510 6.469440 -0.000001 179.612000 14.784700 -179.920000 -39.081100 -0.002282 -0.040193 -0.071474 0.206476 19.912800 -40.985400 0.000008 0.000006 2.712930 8.376460 -65.176200 -11.754300 -0.000006 -0.000006 -0.009029 -0.096231 -20.492800
0.000000 0.000000 0.000000 0.000000 0.000000 -0.000000 -0.979978 92.334500 -1.924460 88.347800 0.368296 5.259510 15.735700 0.000005 -0.000001 87.147100 84.969400 -86.266900 8.984550 -0.406207 -0.000000 2.287570 -0.542465 1.769440 16.377300 -0.000001 -0.000001 4.582180 -2.123780 -0.714889 6.456720 -0.000001 -0.000000 7.554280 -3.455590 -1.817870 12.994200 -0.242716 4.980390 -90.471200 1.419100 -71.629500 5.348090 -0.000007 -0.000001 -63.290400 25.006000 -21.165800 24.328600 0.000019 0.000005 0.755842 1.087520 -34.822400 22.291600 -0.000001 0.000005 4.551920 5.559740 -9.157220 12.994500 -0.242716 -4.980390 88.451800 4.988870 -72.734700 -5.348130 -0.000001 -0.000004 -66.594400 40.896000 -14.891100 -24.328900 0.000322 -0.000009 2.142230 7.583950 -15.831600 -22.291500 -0.000108 -0.000004 9.300880 5.401020 -2.970640 -2.192480 -6.469440 -0.000000 -175.291000 -7.992760 -2.712380 39.081100 -0.000007 -0.000012 -0.102112 0.238618 23.167700 40.985400 -0.000006 -0.000013 -0.048634 5.167680 -65.376400 11.754300 -0.000000 0.000003 -0.000031 -0.000376 -16.592200 -2.192510 6.469440 -0.000001 179.539000 15.120500 -179.852000 -39.081100 -0.002282 -0.040193 -0.072931 0.210826 19.884200 -40.985400 0.000008 0.000006 2.660900 8.264910 -65.150100 -11.754300 -0.000006 -0.000006 -0.008935 -0.095497 -20.462800
0.000000 0.000000 0.000000 0.000000 0.000000 -0.000000 -1.051700 92.327300 -1.987930 88.393900 1.020120 5.358420 15.735700 0.000005 -0.000001 87.473600 84.982200 -86.529200 8.984550 -0.406207 -0.000000 2.264660 -0.487354 1.896740 16.377300 -0.000001 -0.000001 4.811250 -2.112120 -0.959770 6.456720 -0.000001 -0.000000 7.698990 -3.553860 -2.037850 12.994200 -0.242716 4.980390 -90.437300 1.328930 -71.783900 5.348090 -0.000007 -0.000001 -60.706700 20.069000 -25.481400 24.328600 0.000019 0.000005 0.029434 0.034734 -41.935800 22.291600 -0.000001 0.000005 6.660760 5.577600 -10.074100 12.994500 -0.242716 -4.980390 88.455900 4.992650 -72.789800 -5.348130 -0.000001 -0.000004 -66.273500 41.498300 -14.864000 -24.328900 0.000322 -0.000009 2.091610 7.469790 -15.699100 -22.291500 -0.000108 -0.000004 9.213250 5.400240 -2.945150 -2.192480 -6.469440 -0.000000 -175.295000 -7.723680 -2.790220 39.081100 -0.000007 -0.000012 -0.102706 0.239296 23.229200 40.985400 -0.000006 -0.000013 -0.014951 5.545360 -65.299100 11.754300 -0.000000 0.000003 -0.000032 -0.000388 -16.592700 -2.192510 6.469440 -0.000001 179.498000 15.462300 -179.792000 -39.081100 -0.002282 -0.040193 -0.075143 0.215958 19.967800 -40.985400 0.000008 0.000006 2.644710 7.969220 -65.195500 -11.754300 -0.000006 -0.000006 -0.008877 -0.095049 -20.444500
0.000000 0.000000 0.000000 0.000000 0.000000 -0.000000 -1.130230 92.319800 -2.027960 88.470400 1.711390 5.569740 15.735700 0.000005 -0.000001 87.152200 84.949300 -86.154400 8.984550 -0.406207 -0.000000 2.328650 -0.548815 2.004810 16.377300 -0.000001 -0.000001 5.051950 -2.169070 -1.206940 6.456720 -0.000001 -0.000000 7.919330 -3.561350 -2.238410 12.994200 -0.242716 4.980390 -90.329100 1.016390 -72.060500 5.348090 -0.000007 -0.000001 -58.598100 14.389100 -30.303000 24.328600 0.000019 0.000005 -0.475991 -0.395961 -50.232300 22.291600 -0.000001 0.000005 9.126390 5.599510 -11.292200 12.994500 -0.242716 -4.980390 88.442400 5.039450 -72.799500 -5.348130 -0.000001 -0.000004 -65.969700 41.721200 -15.050900 -24.328900 0.000322 -0.000009 2.112120 7.752320 -15.298600 -22.291500 -0.000108 -0.000004 9.199240 5.400400 -2.950180 -2.192480 -6.469440 -0.000000 -175.307000 -7.389330 -2.719280 39.081100 -0.000007 -0.000012 -0.104958 0.244309 23.249000 40.985400 -0.000006 -0.000013 0.004259 5.925030 -65.217300 11.754300 -0.000000 0.000003 -0.000029 -0.000350 -16.591200 -2.192510 6.469440 -0.000001 179.372000 15.955500 -179.574000 -39.081100 -0.002282 -0.040193 -0.076200 0.218078 20.034100 -40.985400 0.000008 0.000006 2.572960 7.774550 -65.249600 -11.754300 -0.000006 -0.000006 -0.008723 -0.093838 -20.395000
0.000000 0.000000 0.000000 0.000000 0.000000 -0.000000 -1.229350 92.308600 -2.062000 88.508700 2.355320 5.736980 15.735700 0.000005 -0.000001 86.245900 84.918300 -85.209900 8.984550 -0.406207 -0.000000 2.382970 -0.713567 2.084610 16.377300 -0.000001 -0.000001 5.266810 -2.287700 -1.328460 6.456720 -0.000001 -0.000000 8.133860 -3.521320 -2.393030 12.994200 -0.242716 4.980390 -90.137500 0.427912 -72.184400 5.348090 -0.000007 -0.000001 -57.312300 8.300450 -35.706000 24.328600 0.000019 0.000005 -1.708720 -1.024920 -58.981700 22.291600 -0.000001 0.000005 11.852800 5.620650 -12.636400 12.994500 -0.242716 -4.980390 88.410400 5.105410 -72.680400 -5.348130 -0.000001 -0.000004 -65.716500 41.622000 -15.402100 -24.328900 0.000322 -0.000009 2.064660 7.784710 -14.911200 -22.291500 -0.000108 -0.000004 9.231660 5.396980 -2.839510 -2.192480 -6.469440 -0.000000 -175.280000 -7.147390 -2.706070 39.081100 -0.000007 -0.000012 -0.103336 0.239726 23.318800 40.985400 -0.000006 -0.000013 0.029353 6.328490 -65.167800 11.754300 -0.000000 0.000003 -0.000033 -0.000396 -16.593000 -2.192510 6.469440 -0.000001 179.320000 16.398100 -179.421000 -39.081100 -0.002282 -0.040193 -0.077766 0.221265 20.126300 -40.985400 0.000008 0.000006 2.624050 7.537860 -65.333300 -11.754300 -0.000006 -0.000006 -0.008771 -0.094213 -20.410300
0.000000 0.000000 0.000000 0.000000 0.000000 -0.000000 -1.307360 92.304900 -2.070820 88.566800 2.747810 5.836710 15.735700 0.000005 -0.000001 85.621300 84.929700 -84.568300 8.984550 -0.406207 -0.000000 2.353600 -0.823349 2.120740 16.377300 -0.000001 -0.000001 5.512930 -2.355260 -1.455120 6.456720 -0.000001 -0.000000 8.495610 -3.472130 -2.457210 12.994200 -0.242716 4.980390 -89.909200 -0.285296 -72.335800 5.348090 -0.000007 -0.000001 -57.094200 1.775370 -41.698800 24.328600 0.000019 0.000005 -3.145230 -1.334730 -67.016500 22.291600 -0.000001 0.000005 13.783000 5.633650 -13.603100 12.994500 -0.242716 -4.980390 88.389900 5.126520 -72.537900 -5.348130 -0.000001 -0.000004 -65.690200 41.234800 -15.610000 -24.328900 0.000322 -0.000009 2.059380 7.866430 -14.727800 -22.291500 -0.000108 -0.000004 9.422410 5.394190 -2.749560 -2.192480 -6.469440 -0.000000 -175.276000 -6.997660 -2.660160 39.081100 -0.000007 -0.000012 -0.104862 0.243493 23.299600 40.985400 -0.000006 -0.000013 0.019576 6.570460 -65.111500 11.754300 -0.000000 0.000003 -0.000032 -0.000384 -16.592500 -2.192510 6.469440 -0.000001 179.257000 16.633500 -179.297000 -39.081100 -0.002282 -0.040193 -0.079168 0.224814 20.149100 -40.985400 0.000008 0.000006 2.565390 7.392220 -65.369400 -11.754300 -0.000006 -0.000006 -0.008932 -0.095473 -20.461800
0.000000 0.000000 0.000000 0.000000 0.000000 -0.000000 -1.366650 92.303500 -2.076170 88.594200 2.882940 5.886870 15.735700 0.000005 -0.000001 85.023800 84.951700 -83.942500 8.984550 -0.406207 -0.000000 2.302350 -0.926656 2.179110 16.377300 -0.000001 -0.000001 5.778860 -2.390730 -1.613660 6.456720 -0.000001 -0.000000 8.825040 -3.362630 -2.470600 12.994200 -0.242716 4.980390 -89.608600 -1.247960 -72.584200 5.348090 -0.000007 -0.000001 -58.548200 -4.920220 -48.110400 24.328600 0.000019 0.000005 -3.349470 -0.998037 -73.426100 22.291600 -0.000001 0.000005 15.714300 5.644590 -14.488700 12.994500 -0.242716 -4.980390 88.393600 5.111640 -72.527900 -5.348130 -0.000001 -0.000004 -65.701600 40.714100 -15.723800 -24.328900 0.000322 -0.000009 2.105620 7.936040 -14.918500 -22.291500 -0.000108 -0.000004 9.503610 5.395500 -2.791900 -2.192480 -6.469440 -0.000000 -175.273000 -6.869810 -2.621240 39.081100 -0.000007 -0.000012 -0.104406 0.242673 23.279000 40.985400 -0.000006 -0.000013 -0.018294 6.589780 -65.084200 11.754300 -0.000000 0.000003 -0.000039 -0.000456 -16.595300 -2.192510 6.469440 -0.000001 179.248000 16.745200 -179.252000 -39.081100 -0.002282 -0.040193 -0.079083 0.224188 20.181900 -40.985400 0.000008 0.000006 2.648240 7.353850 -65.409800 -11.754300 -0.000006 -0.000006 -0.008908 -0.095291 -20.454400
